<svg id="Layer_1" data-name="Layer 1" xmlns="http://www.w3.org/2000/svg" xmlns:xlink="http://www.w3.org/1999/xlink" viewBox="0 0 4677 4542.13"><defs><style>.cls-1{fill:#1d1e1b;}.cls-1,.cls-6{stroke:#683d13;stroke-width:30px;}.cls-1,.cls-10,.cls-6{stroke-miterlimit:10;}.cls-2,.cls-7,.cls-8,.cls-9{fill:#e0d8d0;}.cls-3{fill:#683c11;}.cls-4{fill:#1d1d1b;}.cls-5{fill:#936037;}.cls-10,.cls-6{fill:none;}.cls-7{font-size:253.91px;}.cls-7,.cls-8{font-family:Lobster-Regular, Lobster;}.cls-8{font-size:200px;}.cls-11,.cls-12,.cls-9{fill-rule:evenodd;}.cls-10{stroke:#e0d8d0;stroke-width:15px;}.cls-11{fill:url(#Dégradé_sans_nom_71);}.cls-12{fill:url(#Dégradé_sans_nom_71-2);}</style><linearGradient id="Dégradé_sans_nom_71" x1="2338.64" y1="4372.71" x2="2338.64" y2="168.68" gradientUnits="userSpaceOnUse"><stop offset="0" stop-color="#3e280f"/><stop offset="1" stop-color="#936037"/></linearGradient><linearGradient id="Dégradé_sans_nom_71-2" x1="2338.5" y1="4542.13" x2="2338.5" y2="0" xlink:href="#Dégradé_sans_nom_71"/></defs><title>logo</title><g id="Isolation_Mode" data-name="Isolation Mode"><circle class="cls-1" cx="2338.36" cy="2272.68" r="1899.65"/><circle class="cls-2" cx="2338.36" cy="2272.68" r="1495.47"/><path class="cls-3" d="M2580.24,2293.7c-242.17,186.1-444,244.43-982.13,163.7a695.08,695.08,0,0,0-129-7.13c72.64,361.1,391.6,633.05,774.09,633.05,427,0,774.79-338.89,789.15-762.38C2865.88,2238.39,2712.36,2192.17,2580.24,2293.7Z"/><path class="cls-4" d="M3656.81,2278.13c-.88-55-11.61-105.19-31.89-149.09a305.06,305.06,0,0,0-81.51-106.41c-67-56.26-159.51-88.19-274.9-94.9a793.68,793.68,0,0,0-111.8,1.63c-16.06-50.71-27.84-79.64-27.84-79.64h-152.6c78.59,129.49,123.84,281.45,123.84,444,0,473.25-383.64,856.89-856.89,856.89S1386.33,2767,1386.33,2293.7c0-162.53,45.25-314.49,123.84-444H1348.63s-401.84,987.26,287,1538.21c-.16,2.3-.27,4.62-.27,7v51.79c0,55.5,45.41,100.9,100.9,100.9h997.06c55.49,0,100.9-45.4,100.9-100.9v-51.79c0-.28,0-.55,0-.83,124.12-97.53,213.48-209.06,276.5-326.56,109.87-17.28,203.92-50.53,279.83-99,76.28-48.69,136.66-114.06,179.45-194.31C3651.06,2622.14,3659.37,2438.1,3656.81,2278.13Zm-237.36,415.8c-46.57,87.35-120.59,146.22-228.81,180.65,86.94-284.23,54.67-577.5,10.86-777.11a604.87,604.87,0,0,1,60.63.77c52.55,3.39,125,15.73,171.89,55.27,34.24,28.88,51.32,70.54,52.23,127.35C3488.47,2419,3482.26,2576.16,3419.45,2693.93Z"/><path class="cls-5" d="M2345.89,2357.54s5.38-4.33,14.77-13c2.32-2.19,4.94-4.6,7.72-7.37s5.85-5.72,9.09-9c6.41-6.62,13.69-14.23,21.44-23.07s16.08-18.76,24.65-29.86,17.28-23.45,26.2-36.74c8.67-13.49,17.5-28,25.87-43.62,2.17-3.87,4-8,6.15-12,1-2,2.06-4,3.1-6.09s1.95-4.17,2.94-6.26l5.88-12.74,5.52-13.2c.9-2.23,1.93-4.41,2.73-6.7s1.71-4.56,2.56-6.86l2.6-6.9c.88-2.3,1.75-4.61,2.48-7q2.34-7.08,4.71-14.3c.84-2.37,1.51-4.83,2.2-7.28s1.4-4.91,2.1-7.38,1.41-4.94,2.12-7.42,1.23-5,1.87-7.56q1.83-7.57,3.7-15.27,1.52-7.77,3.05-15.66c.51-2.62,1.09-5.23,1.54-7.88l1.2-8c.77-5.37,1.7-10.72,2.37-16.16s1.18-10.94,1.78-16.46.94-11.09,1.29-16.69q.27-4.2.56-8.41c.16-2.82.45-5.62.43-8.47q.15-8.52.31-17.12c.24-5.71,0-11.5-.14-17.29q-.09-4.35-.2-8.71l-.09-4.36,0-2.19c0-.75,0,.42,0,.08l0-.6-.07-1.18c-.39-6.24-.63-13-1.18-18.1l-.35-4.09c-.11-1.36-.23-2.73-.41-4.18l-1-8.58c-.3-2.88-.8-5.69-1.18-8.54l-.59-4.27c-.2-1.42-.47-2.82-.7-4.24a328.8,328.8,0,0,0-7.11-33.42,293.8,293.8,0,0,0-24.21-62.92,313.86,313.86,0,0,0-17.52-29.27c-1.59-2.39-3.32-4.74-5-7.12s-3.47-4.7-5.19-7l-5.38-7-5.62-7c-15.29-18.49-32.78-36.62-51.68-55.4-18.8-18.94-39.07-38.52-58.65-60.92a449.6,449.6,0,0,1-28.45-35.71,333.71,333.71,0,0,1-24.85-40.32,298.31,298.31,0,0,1-30.12-90,340.39,340.39,0,0,1-4.37-45.4c-.07-3.71-.21-7.43-.21-11.11s.12-7.34.18-11l0-2.15.06-1.2.14-2.41.26-4.8c.12-2.91.47-7.07.77-10.86l.47-5.74c.17-1.89.41-3.63.61-5.45.46-3.6.77-7.19,1.38-10.77s1.15-7.13,1.71-10.69,1.37-7.08,2-10.6c1.52-7,3.12-14,5-20.87.9-3.45,2-6.84,3-10.22l1.56-5.07,1.72-5a337.24,337.24,0,0,1,35.57-73.35,413.78,413.78,0,0,1,46-58.77,632.1,632.1,0,0,1,48.44-46.24c31.89-27.53,61.66-49.84,86.25-70.8,12.31-10.46,23.36-20.52,33-30.32A249,249,0,0,0,2557,939.24c1.68-2.29,3.15-4.61,4.68-6.83,1.38-2.28,2.81-4.49,4.07-6.69s2.54-4.32,3.6-6.45,2.21-4.16,3.11-6.2a147.16,147.16,0,0,0,8.16-21.43c.44-1.52.85-3,1.24-4.3s.63-2.63.92-3.81.55-2.28.79-3.27.37-1.92.52-2.73l1-5s.24,1.7.7,5c.11.83.23,1.77.37,2.8s.17,2.18.27,3.42.2,2.59.31,4,.06,3,.09,4.63c.13,3.31-.1,7-.25,11.07q-.3,3.06-.61,6.4c-.24,2.22-.64,4.52-1,6.93a160.55,160.55,0,0,1-8.87,32.42c-8.91,23.76-25.12,50.36-46.19,77.47s-46.58,55.32-72,85.88c-12.7,15.29-25.29,31.25-37,48.06a389.11,389.11,0,0,0-31.39,53.17,305,305,0,0,0-12,28.64,290.12,290.12,0,0,0-8.83,30l-.9,3.83-.78,3.87c-.52,2.59-1.06,5.17-1.45,7.79-1,5.2-1.66,10.49-2.34,15.79l-.81,8c-.19,2.69-.37,5.39-.56,8.09s-.22,5.44-.37,8.15c0,1.35-.13,2.77-.14,4v3.8c0,2.59-.07,4.81,0,8.3l.1,4.81,0,2.4,0,1.21c0,.39,0-1.16,0-.26l0,.52c.16,2.77.33,5.55.49,8.33s.48,5.5.7,8.25a260.24,260.24,0,0,0,5.19,32.19A215.23,215.23,0,0,0,2391,1461a251.47,251.47,0,0,0,18.37,27.66q10.4,13.61,22.72,27.17c16.49,18.07,35.33,36.37,55,55.92s39.92,40.74,58.67,64.45l7,9,6.79,9.22c2.19,3.16,4.4,6.27,6.55,9.47s4.27,6.4,6.32,9.68a374.26,374.26,0,0,1,39.72,83.59,397.18,397.18,0,0,1,11.52,43.86,416,416,0,0,1,6.39,43.6c.4,3.6.69,7.18.9,10.76s.53,7.15.64,10.69.25,7.09.38,10.62c.08,1.73.1,3.56.11,5.4l0,5.47c.13,7.67-.12,13.57-.3,20l-.08,3-.16,2.55-.32,5.08c-.22,3.38-.43,6.76-.65,10.12-.57,13.45-2.49,26.76-4,39.87-.32,3.28-1,6.53-1.48,9.79s-1.07,6.48-1.61,9.71c-1.13,6.44-2.12,12.85-3.64,19.16l-4.17,18.81c-.32,1.56-.74,3.1-1.18,4.63l-1.27,4.6q-1.27,4.58-2.53,9.13c-.85,3-1.69,6-2.53,9s-1.92,5.94-2.87,8.89c-1.94,5.9-3.91,11.73-5.87,17.49q-3.32,8.53-6.56,16.94c-1.12,2.79-2.1,5.6-3.34,8.31s-2.42,5.43-3.63,8.12a487,487,0,0,1-31.57,60.13q-4.34,6.87-8.57,13.6l-8.95,12.91c-1.49,2.11-2.89,4.25-4.44,6.29l-4.59,6.07-4.54,6c-1.5,2-3,3.93-4.58,5.8l-9.23,11.17c-1.49,1.86-3.07,3.61-4.65,5.36l-4.67,5.19c-6.06,6.95-12.46,13.26-18.47,19.47-6.27,6-12.16,11.89-18.27,17.16-3,2.66-5.92,5.33-8.89,7.83l-8.79,7.23c-2.84,2.39-5.76,4.58-8.56,6.77s-5.51,4.34-8.28,6.33q-8.18,6-15.83,11.16c-5,3.47-10,6.54-14.53,9.47-2.28,1.46-4.59,2.75-6.77,4.06s-4.29,2.56-6.37,3.7c-8.2,4.72-15.37,8.34-21.22,11.18s-10.43,4.78-13.53,6.06S2345.89,2357.54,2345.89,2357.54Z"/><path class="cls-5" d="M2220.66,2392.51s.92-.71,2.65-2.11,4.26-3.57,7.52-6.36,7.22-6.35,11.79-10.56c2.27-2.12,4.72-4.37,7.26-6.87s5.29-5.05,8.08-7.89c11.25-11.25,24.44-25.27,38.43-42.11a579.08,579.08,0,0,0,43.11-58.87c3.48-5.67,7.27-11.27,10.67-17.27l5.29-9c1.74-3,3.36-6.18,5.06-9.3l5.1-9.46,4.9-9.74c3.4-6.48,6.35-13.3,9.46-20.14a541,541,0,0,0,30.69-88.72,576.85,576.85,0,0,0,15.59-98.73q.34-6.39.69-12.8l.38-6.41.19-3.21c0-1.07,0-2.15,0-3.22q.15-12.72.28-25.5l-.3-13.65q-.3-6.18-.61-12.38l-.93-12.75-1.33-12.66a378.17,378.17,0,0,0-9.07-49.43c-2-8.07-4.46-15.93-7-23.76-2.69-7.75-5.52-15.44-8.76-22.92a324.75,324.75,0,0,0-22.39-43.21,418.21,418.21,0,0,0-28-39.77c-20.05-25.53-42.53-49.17-63.76-72.87-10.57-11.89-21-23.63-30.6-35.65a433.51,433.51,0,0,1-26.38-36.26,311.22,311.22,0,0,1-20.23-36.45,255.69,255.69,0,0,1-13.31-35.13,252.86,252.86,0,0,1-7.21-31.9,249.2,249.2,0,0,1-2.7-27.33c-.08-2.06-.22-4.05-.24-6s0-3.82-.06-5.65c-.06-3.65.08-7.08.21-10.25.12-6.34.71-11.71,1-16s.92-7.64,1.18-9.86.43-3.37.43-3.37.74,4.56,2.13,13.09c1.54,8.48,3.87,20.86,8.1,36,.55,1.9,1.07,3.85,1.67,5.83s1.27,4,1.93,6c.32,1,.65,2.07,1,3.12l1.13,3.15c.76,2.12,1.5,4.3,2.33,6.49a281.63,281.63,0,0,0,12.23,27.46c9.69,19,23.06,38.81,40.29,58.39,4.32,4.89,8.82,9.83,13.53,14.77s9.69,9.87,14.89,14.8q15.47,14.86,33,30.42c23.2,20.84,48.7,43.25,73.08,70.13a419.41,419.41,0,0,1,34.87,43.74c5.39,7.91,10.58,16.08,15.46,24.52s9.42,17.18,13.55,26.15,7.89,18.16,11.4,27.45c3.34,9.36,6.45,18.83,9,28.44a400.81,400.81,0,0,1,11.22,58.3l1.45,14.67,1,14.64c.22,5,.39,10,.55,15l.09,13.74v2.17l-.06,1.8-.11,3.59-.22,7.19q-.27,7.17-.52,14.33c-.06,1.19-.07,2.38-.16,3.57l-.29,3.58-.6,7.13q-.62,7.13-1.24,14.22a530.14,530.14,0,0,1-23.07,109.1,488.73,488.73,0,0,1-42.53,94.89c-4.24,7.09-8.29,14.12-12.78,20.75q-3.29,5-6.5,9.95c-2.2,3.26-4.56,6.38-6.81,9.52s-4.47,6.25-6.78,9.26l-7,8.86c-4.5,5.91-9.28,11.42-13.94,16.81l-3.48,4-3.57,3.86-7,7.58c-4.65,5-9.4,9.62-14,14.17s-9.31,8.73-13.81,12.84-9,8-13.47,11.58a442.25,442.25,0,0,1-47.9,34.66c-6.91,4.35-13.23,8-18.8,11s-10.36,5.45-14.28,7.33-7,3.2-9.06,4.08S2220.66,2392.51,2220.66,2392.51Z"/><circle class="cls-6" cx="2338.36" cy="2272.68" r="1495.47"/><text class="cls-7" transform="translate(1741.37 759.52) rotate(-19.31)">C</text><text class="cls-7" transform="translate(1881.25 711.85) rotate(-14.32)">o</text><text class="cls-7" transform="translate(2010.29 679.5) rotate(-9.29)">ff</text><text class="cls-7" transform="translate(2159.78 657.1) rotate(-5.18)">’</text><text class="cls-7" transform="translate(2242.29 649.44) rotate(-1.31)">E</text><text class="cls-7" transform="translate(2381.24 647.96) rotate(2.53)">’</text><text class="cls-7" transform="translate(2463.71 650.84) rotate(6.9)">S</text><text class="cls-7" transform="matrix(0.98, 0.22, -0.22, 0.98, 2628.22, 672.17)">h</text><text class="cls-7" transform="matrix(0.95, 0.3, -0.3, 0.95, 2774.13, 705.77)">o</text><text class="cls-7" transform="matrix(0.92, 0.38, -0.38, 0.92, 2900.91, 746.53)">p</text><text class="cls-7" transform="translate(3030.79 801.91) rotate(26.22)"> </text><text class="cls-7" transform="translate(3100.82 837.03) rotate(28.99)"> </text><text class="cls-7" transform="translate(3169.08 875.5) rotate(31.76)"> </text><text class="cls-7" transform="matrix(0.82, 0.57, -0.57, 0.82, 3235.39, 917.21)"> </text><text class="cls-7" transform="translate(3299.64 962.08) rotate(37.27)"> </text><text class="cls-7" transform="translate(3361.65 1009.97) rotate(40.02)"> </text><text class="cls-7" transform="translate(3421.31 1060.8) rotate(42.77)"> </text><text class="cls-7" transform="matrix(0.7, 0.71, -0.71, 0.7, 3478.45, 1114.42)"> </text><text class="cls-7" transform="translate(3532.97 1170.72) rotate(48.26)"> </text><text class="cls-7" transform="translate(3584.71 1229.56) rotate(51.01)"> </text><text class="cls-7" transform="translate(3633.58 1290.8) rotate(53.76)"> </text><text class="cls-7" transform="matrix(0.55, 0.83, -0.83, 0.55, 3679.45, 1354.34)"> </text><text class="cls-7" transform="matrix(0.51, 0.86, -0.86, 0.51, 3722.22, 1420)"> </text><text class="cls-7" transform="matrix(0.47, 0.88, -0.88, 0.47, 3761.75, 1487.61)"> </text><text class="cls-7" transform="matrix(0.43, 0.9, -0.9, 0.43, 3797.99, 1557.09)"> </text><text class="cls-7" transform="translate(3830.81 1628.21) rotate(67.59)"> </text><text class="cls-7" transform="translate(3860.15 1700.86) rotate(70.38)"> </text><text class="cls-7" transform="translate(3885.92 1774.81) rotate(73.16)"> </text><text class="cls-7" transform="translate(3908.08 1849.96) rotate(75.94)"> </text><text class="cls-7" transform="translate(3926.56 1926.08) rotate(78.72)"> </text><text class="cls-7" transform="translate(3941.33 2003.01) rotate(81.49)"> </text><text class="cls-7" transform="translate(3952.36 2080.61) rotate(84.25)"> </text><text class="cls-7" transform="matrix(0.05, 1, -1, 0.05, 3959.65, 2158.63)"> </text><text class="cls-7" transform="translate(3962.89 2236.56) rotate(89.07)"> </text><text class="cls-7" transform="translate(3963.05 2315.3) rotate(92.43)"> </text><text class="cls-7" transform="translate(3959.17 2393.58) rotate(95.17)"> </text><text class="cls-7" transform="matrix(-0.14, 0.99, -0.99, -0.14, 3951.55, 2471.57)"> </text><text class="cls-7" transform="translate(3940.19 2549.08) rotate(100.7)"> </text><text class="cls-7" transform="translate(3925.1 2625.95) rotate(103.48)"> </text><text class="cls-7" transform="translate(3906.29 2702) rotate(106.26)"> </text><text class="cls-7" transform="translate(3883.82 2777.03) rotate(109.04)"> </text><text class="cls-7" transform="translate(3857.73 2850.91) rotate(111.82)"> </text><text class="cls-7" transform="translate(3828.09 2923.4) rotate(114.6)"> </text><text class="cls-7" transform="translate(3794.97 2994.39) rotate(117.38)"> </text><text class="cls-7" transform="translate(3758.43 3063.72) rotate(120.14)"> </text><text class="cls-7" transform="matrix(-0.54, 0.84, -0.84, -0.54, 3718.61, 3131.18)"> </text><text class="cls-7" transform="matrix(-0.58, 0.81, -0.81, -0.58, 3675.57, 3196.66)"> </text><text class="cls-7" transform="translate(3629.43 3260.01) rotate(128.42)"> </text><text class="cls-7" transform="matrix(-0.66, 0.75, -0.75, -0.66, 3580.31, 3321.05)"> </text><text class="cls-7" transform="translate(3528.3 3379.68) rotate(133.91)"> </text><text class="cls-8" transform="translate(3474.83 3435.8) rotate(137.81)">V</text><text class="cls-8" transform="matrix(-0.79, 0.61, -0.61, -0.79, 3370.46, 3528.66)">o</text><text class="cls-8" transform="translate(3286.74 3592.65) rotate(145.19)">t</text><text class="cls-8" transform="translate(3228.19 3633.14) rotate(148.08)">r</text><text class="cls-8" transform="translate(3149.22 3681.71) rotate(151.32)">e</text><text class="cls-8" transform="translate(3068.92 3724.76) rotate(154.02)"> </text><text class="cls-8" transform="translate(3014.05 3751.65) rotate(156.98)">b</text><text class="cls-8" transform="translate(2916.33 3792.54) rotate(160.73)">o</text><text class="cls-8" transform="matrix(-0.96, 0.26, -0.26, -0.96, 2817.33, 3826.77)">u</text><text class="cls-8" transform="translate(2702.81 3856.88) rotate(168.04)">t</text><text class="cls-8" transform="matrix(-0.99, 0.16, -0.16, -0.99, 2632.85, 3871.29)">i</text><text class="cls-8" transform="matrix(-0.99, 0.11, -0.11, -0.99, 2562.94, 3883.02)">q</text><text class="cls-8" transform="matrix(-1, 0.04, -0.04, -1, 2449.44, 3894.72)">u</text><text class="cls-8" transform="matrix(-1, -0.03, 0.03, -1, 2331.29, 3898.07)">e</text><text class="cls-8" transform="translate(2240.22 3894.91) rotate(-175.83)"> </text><text class="cls-8" transform="translate(2179.41 3890.86) rotate(-172.61)">d</text><text class="cls-8" transform="matrix(-0.98, -0.19, 0.19, -0.98, 2058.45, 3874.09)">e</text><text class="cls-8" transform="translate(1969.23 3855.72) rotate(-166.15)"> </text><text class="cls-8" transform="translate(1909.75 3841.04) rotate(-163.38)">c</text><text class="cls-8" transform="translate(1819.85 3814.11) rotate(-159.55)">a</text><text class="cls-8" transform="matrix(-0.91, -0.4, 0.4, -0.91, 1705.48, 3770.07)">f</text><text class="cls-8" transform="translate(1640.49 3741.12) rotate(-153.18)">e</text><text class="cls-8" transform="matrix(-0.87, -0.5, 0.5, -0.87, 1556.48, 3697.81)">t</text><text class="cls-8" transform="translate(1494.63 3662.01) rotate(-147.73)">i</text><text class="cls-8" transform="translate(1434.55 3623.9) rotate(-144.82)">è</text><text class="cls-8" transform="translate(1357.82 3569.16) rotate(-141.54)">r</text><text class="cls-8" transform="translate(1285.55 3511.14) rotate(-138.26)">e</text><text class="cls-8" transform="translate(1215.53 3447.79) rotate(-135.19)">s</text><path class="cls-9" d="M1144.26,1124.59c22.12-24.22,30.61-55,21.41-79.11l-2.58-6.77-6.86-2.15c-24.28-7.61-55.12,3.51-77.93,28.5-21.32,24.16-28.14,53-17.6,77.26l2.9,6.64,6.94,1.84C1096,1157.54,1123.62,1148,1144.26,1124.59Z"/><path class="cls-9" d="M1158,1179.57c-58.55-27-101.28-11.57-129.69,36.88,35.33-.74,60.23,14.76,83.49,20.69,23.62,6.2,44.73,2.8,76.13-32.2l12.14-13.71C1184.64,1190.36,1173,1186.45,1158,1179.57Z"/><path class="cls-9" d="M1021.35,1058.94c-8.47-14.31-13.52-25.67-15.59-41.58l-13.24,15c-34.23,38.21-33.79,62.45-24.43,84.6,9.69,22.46,28.47,43.75,35.12,79.17C1045.38,1158.29,1054.1,1114.53,1021.35,1058.94Z"/><path class="cls-9" d="M965.8,1296.51c71.33-3.33,100.2,55.26,158.67-17.48l11.72-14c-15.44-.4-27.34-4-42.54-10.31C1034.69,1230.19,992,1246.82,965.8,1296.51Z"/><path class="cls-9" d="M952.79,1139.12c-9-14.07-14.35-25.14-16.89-40.94L923,1113.55c-64.74,80.49,2,93.93,16.91,163.66C980.35,1237.52,987.89,1194,952.79,1139.12Z"/><path class="cls-9" d="M907.11,1379.24c35.3-3.73,60.85,9.3,84.73,13.46,24.07,4.28,44.71-.63,72.81-37.51l10.94-14.41c-15.34.2-27.22-2.85-42.74-8.59C972.56,1309.7,930.92,1328.41,907.11,1379.24Z"/><path class="cls-9" d="M887.34,1222.47c-9.51-13.64-15.38-24.61-18.57-40.41l-12.22,16.09c-31.44,41.34-29.17,65.67-18.07,87,11.29,21.46,32.29,41.51,41.87,76.09C918.87,1319.65,924.22,1275.55,887.34,1222.47Z"/><path class="cls-9" d="M852.68,1464.68c34.93-5.67,61.68,6.29,85.42,9.1s44.54-2.7,70.38-40.63l10.1-14.79c-15.42.75-27.16-1.66-42.93-6.69-30.52-9.73-55.86-9.52-76.59-.44C878.86,1420.59,863.09,1438.75,852.68,1464.68Z"/><path class="cls-9" d="M825.15,1308.9c-10.12-13.18-16.67-24.1-20.41-39.67l-11.5,16.82c-29.5,43.32-26.42,67.34-14,88.36,12.62,21.09,34.15,39.65,45.66,73.74,18.15-21.91,28.19-43.6,28.36-66.71C854,1358.69,844.93,1334.63,825.15,1308.9Z"/><path class="cls-9" d="M803.54,1553.1c35-7.67,61.93,2.44,85.8,3.9,23.65,1.42,44.52-5,67.45-44l9.45-15c-15.24,1.53-27.38-.4-43.41-4.63C861.13,1477,821.34,1500,803.54,1553.1Z"/><path class="cls-9" d="M767,1398.89c-10.76-12.63-17.62-23-22.19-38.48l-10.89,17.39c-27,45.71-23.06,69.27-9.14,89.76,13.79,20.32,36.83,37.8,50,70.84C808.43,1492.58,809.2,1448.53,767,1398.89Z"/><path class="cls-9" d="M761.09,1644.68c68.67-19.73,109.66,29.86,149.66-49.9l8.24-15.43c-15,2.38-27.16,1.18-43.39-2C812.75,1564.6,774.65,1590.42,761.09,1644.68Z"/><path class="cls-9" d="M714,1493.08c-11.55-12-19.06-21.94-24.57-37.28l-9.8,18.35c-24.38,47.87-18.87,71.45-3.59,90.92s39.5,35.21,55.25,67.2c15.26-24.19,21.54-47.4,19.5-70.11C748.37,1539.31,736.28,1516.22,714,1493.08Z"/><path class="cls-9" d="M726.6,1739.26c33.16-13.36,61.34-7.61,85-9.76,11.67-1,22.52-3.82,32.43-11.37,10.13-7.52,17.9-20,27.12-40.05l6.86-15.71c-14.64,3.33-26.84,3-43.23,1-32-4-56.74,1-74.63,14.19C741.66,1690.48,731.06,1711.91,726.6,1739.26Z"/><path class="cls-9" d="M667.19,1591.67c-12.41-11.11-20.63-20.56-27.24-35.64l-8.46,19.38c-11.18,24.66-13.58,43.91-12.45,58.16,1.3,14.41,7.26,24.69,15.77,33.88,16.86,18.15,42.4,31.82,61,62.24,13-25.56,17.27-49.21,13.41-71.75C704.72,1635.2,691.16,1613.18,667.19,1591.67Z"/><path class="cls-9" d="M702.18,1836.58c31.24-16.93,60.19-14.1,83.36-18.57s41-14.88,53.7-55.5l5.29-15.88c-14.2,4.41-26.36,5.1-42.85,4.5-32.3-1.19-56.21,6-72.8,20.82C711.73,1786.54,703.58,1809,702.18,1836.58Z"/><path class="cls-9" d="M628.26,1695.12c-13.35-10-22.36-18.76-30.21-33.4l-6.83,20.45c-16.66,53.16-6.62,76.33,12,92.81s45.22,27.31,67.24,55.58c10.15-26.92,11.76-50.94,5.78-73.06C669.69,1735.27,654,1714.45,628.26,1695.12Z"/><path class="cls-9" d="M654.46,2341.65c25.16-25.39,53.31-31.28,74.15-42.6,10.31-5.57,19.17-12.43,25.28-23.28,6.33-10.93,8.54-25.43,9.05-47.52l.07-17.14c-12.12,8.85-23.45,13.37-39.31,18-31,9-51.7,23.4-62.91,42.59C649,2290.9,647.72,2314.77,654.46,2341.65Z"/><path class="cls-9" d="M541.46,2229.66c-15.8-5.29-27.09-10.71-39.13-21.94l-.1,21.14c-.5,27.08,4.93,45.7,11.61,58.35,6.9,12.7,16.44,19.79,27.9,24.86,22.66,10,51.53,12.42,80.62,33,1.83-28.63-3.63-52-16.11-71.2C593.16,2254.76,572,2239.92,541.46,2229.66Z"/><path class="cls-9" d="M670.57,2440.69c22-27.92,49.69-36.78,69.2-50.07s31.76-29.9,27.33-72.23l-1.43-16.67c-11.3,9.68-22.19,15.12-37.57,21.11-30.14,11.69-49.22,27.8-58.6,47.94C659.53,2391,661,2414.82,670.57,2440.69Z"/><path class="cls-9" d="M546.68,2340.07c-16.22-3.9-28-8.37-41-18.71l1.83,21.48c5.75,55.42,24.15,72.72,47.77,80.47s52.34,7.18,83.76,24.42c-1.35-28.75-9.38-51.44-23.63-69.38C600.62,2360.53,578,2347.63,546.68,2340.07Z"/><path class="cls-9" d="M674.69,1942.43c31.48-16.92,60.13-14.31,83.37-19,11.49-2.31,22-6.28,31-14.87,9.24-8.59,15.6-21.81,22.55-42.79l5.09-16.36c-14.19,4.91-26.34,5.92-42.86,5.71-32.3-.44-56.29,7.25-72.62,22.31C684.28,1892.29,676.11,1914.75,674.69,1942.43Z"/><path class="cls-9" d="M599.41,1802.27c-13.57-9.68-22.78-18.17-31-32.43L562.13,1790c-8.4,25.75-8.67,45.14-6,59.19,2.88,14.17,9.93,23.73,19.41,31.93,18.75,16.19,45.64,27,67.43,55.16,10.12-26.84,11.75-50.81,5.43-72.79C641.5,1841.41,625.59,1821,599.41,1802.27Z"/><path class="cls-9" d="M661.11,2041.84c29.19-20.26,58.28-20.62,80.82-27.62s39.12-19.3,47.27-61.07l3.51-16.36c-13.63,6-25.64,8-42.09,9.19-32.25,2.36-55.21,12.18-70.08,28.69C665.11,1991.06,659.48,2014.29,661.11,2041.84Z"/><path class="cls-9" d="M572.09,1909.37c-14.37-8.47-24.29-16.18-33.71-29.87l-4.53,21.08c-10.72,54.67,1.81,76.59,22.13,90.92s47.95,22.18,72.95,47.85c7.12-27.87,6.08-51.92-2.29-73.25C617.68,1944.73,599.79,1925.76,572.09,1909.37Z"/><path class="cls-9" d="M650.58,2145c28.52-21.54,57.23-23.35,79.48-31.59,11-4,20.74-9.56,28.34-19.43,7.82-9.91,12.07-23.95,15.73-45.74l2.52-17c-13.26,7-25.12,9.89-41.47,12.21-32,4.52-54.52,15.79-68.35,33.18C652.39,2094,647.75,2117.4,650.58,2145Z"/><path class="cls-9" d="M554.72,2018c-14.88-7.49-25.29-14.47-35.6-27.31L516,2011.61c-4.36,26.73-1.65,45.94,3.16,59.4,5,13.57,13.45,21.94,24.06,28.59,21,13.12,49.24,19.65,75.09,44.18,5.9-28.07,3.83-52-5.78-72.77C602.31,2050.22,583.47,2032.5,554.72,2018Z"/><path class="cls-9" d="M652.39,2245.29c25.74-24.5,54.44-29.31,75.63-39.68s35.71-25.06,37.36-67.59l1-16.7c-12.57,8-24.12,11.8-40.19,15.53-31.5,7.27-52.69,20.49-64.85,39.09C648.56,2194.49,646.56,2218.32,652.39,2245.29Z"/><path class="cls-9" d="M544.13,2128c-15.5-6.18-26.48-12.27-37.89-24.36L505,2125.18c-2.22,55.67,13.52,75.42,35.79,86.47s50.78,14.56,79.42,36.11c2.77-28.64-2-52.25-13.49-72C594.6,2156,574,2140,544.13,2128Z"/><path class="cls-9" d="M678.51,2545.46c22.9-27.45,50.45-35.72,70.25-48.79,9.79-6.43,18-14,23.19-25.35,5.37-11.42,6.33-26.06,5-48.12l-1.39-17.08c-11.33,9.85-22.23,15.33-37.63,21.29-30.13,11.65-49.52,27.74-59,47.81C668.7,2495.36,669.5,2519.25,678.51,2545.46Z"/><path class="cls-9" d="M556.36,2443.53c-16.2-3.92-27.91-8.35-40.86-18.52l1.71,21.08c1.81,27,8.81,45.11,16.54,57.14,8,12.07,18.08,18.31,29.93,22.38,23.43,8,52.4,8,83.14,26-.62-28.68-8.06-51.53-22.13-69.56C610,2464.13,587.65,2451.14,556.36,2443.53Z"/><path class="cls-9" d="M703,2642.76c19.51-29.7,46.36-40.89,64.66-55.8s29.09-32.5,21.06-74.3l-2.85-16.48c-10.43,10.6-20.81,17-35.62,24.23-29,14.23-46.67,31.91-54.3,52.78C687.78,2594.15,691.23,2617.81,703,2642.76Z"/><path class="cls-9" d="M571,2553.09c-16.49-2.5-28.57-6-42.42-15.14l3.66,21.25c10.47,54.72,30.27,70.39,54.47,76.09s52.76,2.68,85.54,17.17c-3.8-28.52-13.74-50.44-29.47-67.1C626.49,2568.87,602.8,2558,571,2553.09Z"/><path class="cls-9" d="M720.82,2740.68c19.6-29.89,46-41.27,64.2-56.51,9-7.51,16.31-16,20.14-27.85,4-12,3.3-26.61-.59-48.36l-3.34-16.82c-10.12,11.09-20.33,17.78-34.94,25.47-28.6,15-46,33.22-53.18,54.25C705.34,2692,708.87,2715.67,720.82,2740.68Z"/><path class="cls-9" d="M587.8,2653.41c-16.54-2-28.68-5.11-42.72-13.72l4.12,20.74c4.89,26.63,13.92,43.81,23,54.87,9.29,11.08,20.05,16.12,32.29,18.81,24.2,5.28,53,1.92,85.58,16.31-3.91-28.42-13.92-50.26-30-66.57C643.46,2667.72,619.76,2657.38,587.8,2653.41Z"/><path class="cls-9" d="M756.32,2834.53c16-31.74,41.38-45.93,57.85-62.84s25.17-35.62,12.41-76.22l-4.72-16c-9.15,11.73-18.73,19.23-32.61,28.15-27.21,17.46-42.71,37-47.9,58.65C735.6,2788,741.74,2811.09,756.32,2834.53Z"/><path class="cls-9" d="M614.88,2760.57c-16.67-.6-29.06-2.64-43.88-10.18l6.08,20.68c16.66,53.17,38.13,66.46,62.82,69.36s52.72-3.38,86.94,7.26c-7-27.9-19.42-48.54-37-63.29C671.82,2769.89,647,2761.76,614.88,2760.57Z"/><path class="cls-9" d="M3563.94,1173.32c-21.42-24.84-29-55.89-19.14-79.69l2.78-6.69,6.91-2c24.49-6.91,55,5.09,77.08,30.73,20.62,24.75,26.61,53.79,15.38,77.73l-3.08,6.55-7,1.64C3611.23,1207.64,3583.9,1197.3,3563.94,1173.32Z"/><path class="cls-9" d="M3548.68,1227.89c59.3-25.27,101.57-8.67,128.58,40.58-35.29-1.76-60.63,13-84.05,18.29-23.79,5.52-44.79,1.51-75.18-34.37l-11.74-14.05C3521.69,1237.91,3533.44,1234.33,3548.68,1227.89Z"/><path class="cls-9" d="M3688.68,1111.21c8.87-14.06,14.24-25.27,16.77-41.11l12.81,15.33c33.12,39.18,32,63.39,22,85.27-10.32,22.18-29.7,42.91-37.37,78.13C3661.81,1209.84,3654.34,1165.85,3688.68,1111.21Z"/><path class="cls-9" d="M3737.4,1350.28c-71.2-5.37-101.74,52.37-158.1-22L3568,1314c15.45,0,27.44-3.23,42.82-9.09C3670.44,1282,3712.65,1299.86,3737.4,1350.28Z"/><path class="cls-9" d="M3754.91,1193.33c9.43-13.81,15.07-24.72,18.06-40.44l12.44,15.73c62.4,82.31-4.66,93.83-21.59,163.11C3724.55,1290.9,3718.26,1247.14,3754.91,1193.33Z"/><path class="cls-9" d="M3793.7,1434.66c-35.18-4.75-61.1,7.55-85.08,11-24.19,3.6-44.68-1.9-71.71-39.58l-10.52-14.71c15.32.64,27.29-2.07,43-7.37C3730.27,1363.27,3771.35,1383.16,3793.7,1434.66Z"/><path class="cls-9" d="M3818,1278.51c9.9-13.35,16.08-24.16,19.72-39.86l11.75,16.44c30.25,42.22,27.28,66.47,15.57,87.44-11.89,21.13-33.46,40.56-44,74.86C3783.65,1374.76,3779.57,1330.52,3818,1278.51Z"/><path class="cls-9" d="M3845.66,1521.62c-34.76-6.67-61.84,4.52-85.64,6.65s-44.45-4-69.2-42.63l-9.67-15.07c15.4,1.19,27.2-.88,43.1-5.46,30.8-8.85,56.12-7.92,76.58,1.75C3820.75,1476.8,3836,1495.4,3845.66,1521.62Z"/><path class="cls-9" d="M3877.64,1366.7c10.49-12.9,17.36-23.62,21.53-39.08l11,17.14c28.25,44.16,24.48,68.07,11.41,88.73s-35.26,38.65-47.75,72.4c-17.51-22.42-26.93-44.38-26.44-67.49C3847.41,1415.64,3857.13,1391.85,3877.64,1366.7Z"/><path class="cls-9" d="M3892.25,1611.41c-34.72-8.66-62,.67-85.88,1.44-23.68.74-44.36-6.26-66.16-45.9l-9-15.31c15.18,2,27.37.37,43.52-3.39C3836.86,1533.66,3876,1557.84,3892.25,1611.41Z"/><path class="cls-9" d="M3933.22,1458.31c11.13-12.31,18.28-22.47,23.29-37.83l10.38,17.7c25.64,46.46,21.08,69.9,6.57,90-14.37,19.92-37.9,36.73-52.06,69.38C3889.09,1550.77,3889.58,1506.72,3933.22,1458.31Z"/><path class="cls-9" d="M3932.06,1704.17c-68.08-21.69-110.47,26.7-148.17-54.17l-7.8-15.65c14.9,2.8,27.12,2,43.43-.8C3882.72,1622.64,3920.05,1649.55,3932.06,1704.17Z"/><path class="cls-9" d="M3983.47,1554c11.89-11.63,19.68-21.38,25.63-36.57l9.27,18.63c23,48.55,16.81,72,1,91s-40.5,34.06-57.16,65.58c-14.56-24.62-20.18-48-17.49-70.63C3947.79,1599.2,3960.53,1576.47,3983.47,1554Z"/><path class="cls-9" d="M3963.82,1799.7c-32.76-14.3-61.1-9.37-84.65-12.19-11.63-1.37-22.4-4.46-32.09-12.29-9.91-7.81-17.33-20.47-26-40.81l-6.4-15.9c14.54,3.74,26.74,3.76,43.18,2.2,32.16-3.07,56.69,2.64,74.2,16.33C3950.17,1750.5,3960.15,1772.23,3963.82,1799.7Z"/><path class="cls-9" d="M4027.43,1653.87c12.73-10.75,21.22-20,28.25-34.85l7.91,19.61c10.47,25,12.31,44.29,10.78,58.5-1.72,14.36-8,24.47-16.74,33.42-17.37,17.65-43.29,30.59-62.72,60.47-12.27-25.93-15.85-49.69-11.34-72.11C3988.67,1696.3,4002.86,1674.68,4027.43,1653.87Z"/><path class="cls-9" d="M3985.45,1897.67c-30.74-17.82-59.77-15.81-82.8-21s-40.56-16-52.09-57l-4.83-16c14.07,4.81,26.2,5.85,42.7,5.73,32.33-.27,56,7.64,72.18,22.89C3977.33,1847.38,3984.83,1870.08,3985.45,1897.67Z"/><path class="cls-9" d="M4063.39,1758.39c13.63-9.62,22.88-18.11,31.16-32.52l6.23,20.64c15.14,53.62,4.44,76.49-14.65,92.42s-46,26-68.8,53.64c-9.37-27.2-10.3-51.26-3.69-73.19C4020.82,1797.34,4037.12,1777,4063.39,1758.39Z"/><path class="cls-9" d="M4018.69,2403.91c-24.42-26.1-52.4-32.79-72.91-44.71-10.14-5.87-18.8-13-24.6-24-6-11.1-7.8-25.66-7.68-47.75l.42-17.14c11.86,9.19,23.06,14,38.77,19.12,30.75,9.92,51,24.87,61.67,44.38C4025.63,2353.33,4026.19,2377.23,4018.69,2403.91Z"/><path class="cls-9" d="M4134.85,2295.2c15.94-4.84,27.38-9.93,39.74-20.82l-.51,21.14c-.28,27.08-6.23,45.54-13.27,58-7.26,12.51-17,19.31-28.6,24-22.94,9.34-51.87,11-81.54,30.69-1-28.67,5.12-51.9,18.14-70.7C4082.45,2318.81,4104,2304.58,4134.85,2295.2Z"/><path class="cls-9" d="M3999.75,2502.44c-21.18-28.54-48.62-38.18-67.74-52s-30.89-30.8-25.25-73l1.91-16.62c11,10,21.74,15.75,36.94,22.17,29.79,12.55,48.41,29.2,57.21,49.6C4012.21,2453.05,4010.11,2476.86,3999.75,2502.44Z"/><path class="cls-9" d="M4126.47,2405.41c16.32-3.44,28.19-7.56,41.49-17.53l-2.45,21.43c-7.33,55.23-26.22,72-50.05,79.07s-52.52,5.67-84.42,22c2.17-28.69,10.84-51.15,25.6-68.67C4072,2424.32,4095,2412.08,4126.47,2405.41Z"/><path class="cls-9" d="M4009.9,2004.27c-31-17.81-59.7-16-82.8-21.42-11.41-2.64-21.77-6.9-30.54-15.75-9-8.85-15-22.25-21.32-43.41l-4.62-16.51c14,5.32,26.16,6.67,42.68,6.94,32.3.48,56,8.85,71.95,24.38C4001.74,1953.88,4009.27,1976.56,4009.9,2004.27Z"/><path class="cls-9" d="M4089.16,1866.33c13.84-9.29,23.29-17.51,31.91-31.54l5.7,20.37c7.67,26,7.37,45.37,4.29,59.33-3.29,14.08-10.61,23.44-20.32,31.37-19.2,15.64-46.39,25.64-69,53.2-9.35-27.12-10.29-51.13-3.35-72.92C4046,1904.24,4062.45,1884.31,4089.16,1866.33Z"/><path class="cls-9" d="M4020.62,2104c-28.6-21.09-57.66-22.28-80-29.93s-38.55-20.41-45.5-62.39l-3.05-16.45c13.46,6.33,25.41,8.69,41.82,10.38,32.16,3.29,54.84,13.76,69.22,30.69C4018.08,2053.15,4023,2076.54,4020.62,2104Z"/><path class="cls-9" d="M4113.4,1974.16c14.61-8.06,24.74-15.47,34.55-28.89l3.93,21.2c9.15,55-4,76.51-24.73,90.25s-48.56,20.79-74.28,45.75c-6.33-28.07-4.6-52.08,4.38-73.16C4066.81,2008.2,4085.25,1989.75,4113.4,1974.16Z"/><path class="cls-9" d="M4028.2,2207.42c-27.9-22.35-56.54-25-78.54-33.85-10.88-4.36-20.47-10.16-27.77-20.24-7.54-10.13-11.39-24.28-14.42-46.17l-2-17c13.06,7.4,24.83,10.6,41.11,13.39,31.85,5.43,54,17.34,67.37,35.12C4027.85,2156.37,4031.82,2179.94,4028.2,2207.42Z"/><path class="cls-9" d="M4127.65,2083.24c15.1-7.06,25.69-13.73,36.37-26.27l2.51,21c3.59,26.84.33,46-4.86,59.28-5.4,13.42-14.07,21.54-24.87,27.89-21.38,12.52-49.78,18.23-76.32,42-5.09-28.23-2.34-52.1,7.86-72.57C4079.16,2114.09,4098.5,2096.92,4127.65,2083.24Z"/><path class="cls-9" d="M4023.51,2307.65c-25-25.23-53.57-30.86-74.46-41.83s-35-26.08-35.41-68.63l-.49-16.73c12.33,8.32,23.77,12.49,39.73,16.67,31.28,8.18,52.09,22,63.71,40.93C4028.8,2257,4030.12,2280.85,4023.51,2307.65Z"/><path class="cls-9" d="M4135.09,2193.52c15.67-5.73,26.82-11.51,38.57-23.27l.63,21.56c.62,55.71-15.68,75-38.26,85.4s-51.17,13.11-80.42,33.83c-1.94-28.71,3.44-52.17,15.54-71.62C4083.84,2220,4104.88,2204.61,4135.09,2193.52Z"/><path class="cls-9" d="M3988.81,2606.94c-22.1-28.09-49.4-37.15-68.82-50.77-9.6-6.71-17.63-14.53-22.46-26-5-11.57-5.58-26.23-3.57-48.24l1.87-17c11,10.18,21.78,16,37,22.37,29.78,12.5,48.7,29.14,57.64,49.48C4000.05,2557.15,3998.57,2581,3988.81,2606.94Z"/><path class="cls-9" d="M4113.83,2508.56c16.3-3.46,28.14-7.56,41.38-17.35l-2.32,21c-2.59,27-10.1,44.84-18.17,56.64-8.31,11.84-18.59,17.79-30.55,21.52-23.66,7.35-52.62,6.48-83.86,23.61,1.44-28.65,9.53-51.27,24.11-68.89C4059.61,2527.61,4082.33,2515.27,4113.83,2508.56Z"/><path class="cls-9" d="M3961.52,2703.5c-18.66-30.24-45.18-42.2-63-57.62s-28.15-33.33-18.93-74.88l3.32-16.39c10.13,10.89,20.32,17.54,34.92,25.24,28.61,15.05,45.74,33.23,52.76,54.31C3978.15,2655.35,3974,2678.9,3961.52,2703.5Z"/><path class="cls-9" d="M4096.07,2617.65c16.55-2,28.73-5.13,42.84-13.92l-4.28,21.14c-12,54.4-32.27,69.49-56.62,74.5s-52.81,1.16-86,14.71c4.61-28.4,15.17-50,31.37-66.23C4040.14,2631.83,4064.13,2621.6,4096.07,2617.65Z"/><path class="cls-9" d="M3940.92,2800.87c-18.73-30.44-44.82-42.56-62.54-58.33-8.78-7.76-15.85-16.45-19.34-28.41-3.68-12.07-2.54-26.69,2-48.33l3.82-16.71c9.8,11.37,19.81,18.35,34.2,26.46,28.16,15.83,45,34.52,51.6,55.75C3957.79,2752.69,3953.59,2776.22,3940.92,2800.87Z"/><path class="cls-9" d="M4076.39,2717.44c16.59-1.56,28.82-4.28,43.09-12.49l-4.7,20.62c-5.66,26.48-15.17,43.39-24.54,54.19-9.61,10.81-20.51,15.54-32.82,17.88-24.34,4.58-53,.4-86,13.85,4.72-28.3,15.34-49.85,31.85-65.68C4020.35,2730.16,4044.34,2720.5,4076.39,2717.44Z"/><path class="cls-9" d="M3902.76,2893.66c-15.07-32.18-40.05-47.09-56-64.46s-24.14-36.33-10.22-76.55l5.17-15.91c8.81,12,18.18,19.76,31.8,29.08,26.69,18.23,41.63,38.25,46.19,60C3924.8,2847.73,3918,2870.65,3902.76,2893.66Z"/><path class="cls-9" d="M4046.26,2823.78c16.67-.11,29.12-1.8,44.14-8.92l-6.66,20.51c-18.18,52.67-40,65.34-64.78,67.53s-52.6-4.89-87.12,4.77c7.84-27.69,20.81-48,38.76-62.21C3989.07,2831.47,4014.07,2824.05,4046.26,2823.78Z"/><path class="cls-10" d="M1210.4,1000.77a1701.31,1701.31,0,0,1,462.46-292.89"/><path class="cls-10" d="M3529.8,1056.09a1700.92,1700.92,0,0,0-439.62-326.18"/><path class="cls-10" d="M1056.51,3356.84a1701.39,1701.39,0,0,1-298.8-458.67"/><path class="cls-10" d="M3593.58,3408.84a1701,1701,0,0,0,303.68-455.45"/><path id="_Tracé_transparent_" data-name="&lt;Tracé transparent&gt;" class="cls-11" d="M255,1750.8c63.66,173.88,35.12,422.37-66.39,578.19-24.46,37.58-19.53,113.44,9.56,147.63C319,2618.7,379.47,2861.76,338.79,3042c-9.85,43.42,21.43,113.12,60.74,135.52,163.47,93.23,305.58,301.55,330.58,484.56,6,44,59.87,99.06,104.68,107.07,186.32,33.19,393,181.51,480.71,345.1,18.66,34.87,77.67,66.67,123.67,66.67a78.49,78.49,0,0,0,12.28-.91,568.13,568.13,0,0,1,93.86-7.46c171.24,0,363.71,68.94,479,171.54,19.18,17.08,56.52,28.58,92.91,28.58,22.6,0,44.16-4.55,57.88-12.15,92.69-51.35,218.6-80.9,345.43-80.9,91.91,0,178.47,15.31,250.42,44.25,10,4,23.63,6.18,38.47,6.18,42.37,0,88.27-17.23,109-41,118-135.35,339-233.59,525.47-233.59l21.62.46,3,.09c45.46,0,108-41.38,123.4-82,65.84-173.05,251.74-345.6,432.25-401.36,43.51-13.41,89.75-74.64,90-119.06,1.19-184.57,115.27-408.66,265.38-521.26,36.1-27,58.1-100,42.78-141.85-63.7-173.78-35.22-422.39,66.31-578.2,24.51-37.51,19.6-113.38-9.54-147.62-120.85-142.1-181.21-385.14-140.6-565.46,9.86-43.45-21.42-113-60.67-135.5-163.47-93.23-305.65-301.57-330.59-484.54-6-44-59.86-99-104.66-107.06-186.34-33.11-393-181.51-480.76-345.16C3343,392.17,3284.1,360.46,3238,360.46a72.75,72.75,0,0,0-12.22.92,577.11,577.11,0,0,1-93.82,7.41c-171.25,0-363.77-69-479-171.56-19.19-17.11-56.58-28.55-93-28.55-22.56,0-44.1,4.54-57.77,12.14-92.78,51.44-218.57,80.91-345.43,80.91-91.86,0-178.48-15.29-250.44-44.21-10-4.05-23.62-6.19-38.45-6.19-42.49,0-88.31,17.24-109,41-118,135.24-338.92,233.39-525.42,233.39l-21.66-.35-2.93-.06c-45.42,0-108,41.25-123.35,81.91C1019.6,740.32,833.76,912.92,653.19,968.63c-43.45,13.42-89.75,74.63-90,119.06C562,1272.31,447.88,1496.33,297.81,1609c-36.12,27.11-58.11,100-42.77,141.85Zm4026,519.85c0,1070.39-869.74,1938-1942.43,1938S396.2,3341,396.2,2270.65c0-1070.23,869.73-1937.88,1942.42-1937.88S4281.05,1200.42,4281.05,2270.65Z"/><path id="_Tracé_transparent_2" data-name="&lt;Tracé transparent&gt;" class="cls-12" d="M1931.42,187.58c64.72,26.19,143.15,40,226.76,40,116.21,0,231-26.63,314.61-73,22.21-12.4,52.44-19.28,85-19.28,50.55,0,99.67,16.07,129.44,42.25,104.4,93.24,280.13,156.15,437,156.15a491.84,491.84,0,0,0,83.62-6.89,156.12,156.12,0,0,1,21.26-1.37c66.6,0,143.6,42.26,171.48,94.61,79.83,148.81,267.85,283.85,437,313.7,67.55,12.4,139.83,85.89,148.81,152.49,22.67,166.26,151.64,355.49,300.45,440,59.05,34,101.09,127.22,86,192.45-36.85,164,18,384.89,128,513.94,43.46,51.44,50.07,153.41,13.69,209.9-92.59,141.47-118.57,367.43-60.46,525.43,23.14,62.92-6.62,160.75-60.94,201.63-136.05,102.42-240,305.89-240.93,473.53-.47,67.06-62.83,149.27-128,169.48-163.93,50.53-333.05,207.15-392.57,364.69-23.15,60.61-106.77,116.19-174.79,116.19h-4.25c-6.61,0-13.22,0-19.84-.46-169.59,0-370.84,89.11-478.07,212.2-31.18,35.82-91.18,59.71-150.23,59.71-21.73,0-42.51-3.68-59.05-10.11-64.72-26.18-143.14-40-226.75-40-116.21,0-231,26.64-314.62,73-22.2,12.4-52.44,19.29-85,19.29-50.08,0-99.68-16.08-129.44-42.25-104.4-93.24-280.14-156.16-436.5-156.16a494.44,494.44,0,0,0-84.09,6.88,149.64,149.64,0,0,1-21.26,1.38c-66.6,0-143.61-42.26-171.48-94.61-79.83-148.81-267.85-283.84-437-313.69-67.56-12-139.83-85.9-148.8-152.49-22.69-166.27-151.65-355.5-300.45-440-59.06-34-100.63-127.22-86-192.44,36.85-164-17.94-384.89-128-513.95-43.46-51.45-50.08-153.4-13.23-209.9,92.12-141.46,118.1-367.43,60-525.43-23.15-62.92,6.61-160.76,60.94-201.62,136.52-102,240-305.89,240.92-473.55.47-67,62.83-149.26,128-169.47,163.93-50.52,333-207.14,393-364.68C1068.35,504.5,1152,448.92,1220,448.92h4.25c6.62.46,13.23.46,19.85.46,169.6,0,370.83-89.1,478.07-212.2,31.18-35.82,91.17-59.7,150.22-59.7,22.21,0,42.52,3.68,59.05,10.1ZM2404.3,36.93c-112,62-300.92,73.49-420,25.73s-284.87-8.74-368,86.8c-83.62,96-257,169.94-385.48,164.42-129-5.05-270.69,86.82-315.56,204.39S733.42,763.08,610.59,801.2C487.76,838.86,386.66,973,386.19,1098.37c-.94,125.38-85,290.72-187.07,367.43S48.9,1701.87,92.36,1819.91c43,118,22.2,301.75-46.77,407.4-69,106.09-58.57,271.9,23.63,368.8,82.19,96.45,126.6,275.58,99.19,398.22-27.86,122.63,40.64,275.11,151.65,338.49S536,3549.61,553,3674.08s134.63,244.8,261.23,267.3,279.19,132.29,338.71,243.43c60,111.16,212.58,185.1,339.66,164C1619.16,4327.65,1801,4380,1896,4464.52c95.42,84.51,264.54,102.88,376.5,40.87s300.92-73.47,420-25.71,284.87,8.72,368-86.81c83.61-96,257-169.94,385.48-164.43,129,5.06,270.68-86.8,315.57-204.38s181.87-244.8,304.69-282.92C4189,3703.48,4290.13,3569.36,4290.6,3444c.95-125.38,85-290.73,187.07-367.43,102-76.25,150.23-235.62,106.77-354.12-43-118-22.2-301.75,46.77-407.39,69.44-106.1,58.58-271.9-23.62-368.35-82.2-96.92-126.6-276-99.21-398.68,27.88-122.62-40.63-275.11-151.64-338.49s-215.89-216.79-232.89-341.25S3989.21,623.45,3862.61,601s-279.19-132.28-338.72-243.43c-60-111.15-212.57-185.09-339.66-164-126.6,21.14-308.48-31.23-403.42-115.73S2516.26-25.53,2404.3,36.93Z"/></g></svg>